<?xml version="1.0" encoding="UTF-8"?>
<svg xmlns="http://www.w3.org/2000/svg" width="1200" height="700" viewBox="0 0 1200 700">
<style>
text{font-family:'Segoe UI',Arial,sans-serif}
.code{font-family:Consolas,monospace;font-size:15px}
.small{font-size:12px}
.title{font-size:13px;fill:#ccc}
@keyframes blink{50%{opacity:0}}
@keyframes fillbar{0%{width:0}50%{width:340px}100%{width:0}}
@keyframes toast{0%,20%{opacity:0;transform:translateY(15px)}30%,70%{opacity:1;transform:translateY(0)}100%{opacity:0;transform:translateY(15px)}}
#cursor{animation:blink 1s step-end infinite}
#bar{animation:fillbar 5s linear infinite}
#toast{animation:toast 5s ease-in-out infinite}
</style>

<rect width="1200" height="700" fill="#1e1e1e"/>
<rect width="1200" height="36" fill="#2d2d30"/>
<circle cx="18" cy="18" r="5" fill="#ff5f56"/>
<circle cx="36" cy="18" r="5" fill="#ffbd2e"/>
<circle cx="54" cy="18" r="5" fill="#27c93f"/>
<text x="600"
      y="23"
      text-anchor="middle"
      class="title">
it_works_on_my_machine.js — Visual Studio Code
</text>
<line x1="0"
      y1="36"
      x2="1200"
      y2="36"
      stroke="#3c3c3c"
      stroke-width="1"/>

<rect x="0" y="36" width="48" height="664" fill="#181818"/>
<rect x="48"
      y="36"
      width="250"
      height="644"
      fill="#252526"/>

<line x1="298"
      y1="36"
      x2="298"
      y2="680"
      stroke="#2a2d2e"
      stroke-width="1"/>
<rect x="298" y="36" width="902" height="524" fill="#1e1e1e"/>
<!-- Editor Guide -->
<line x1="348"
      y1="70"
      x2="348"
      y2="560"
      stroke="#2a2d2e"
      stroke-width="1"/>

<line x1="298"
      y1="70"
      x2="1200"
      y2="70"
      stroke="#2a2d2e"
      stroke-width="1"/>
<rect x="298" y="560" width="902" height="120" fill="#181818"/>
<rect x="0" y="680" width="1200" height="20" fill="#007acc"/>

<!-- Activity Bar -->

<rect x="0" y="48" width="48" height="42" fill="#252526"/>
<rect x="0" y="48" width="3" height="42" fill="#007acc"/>

<rect x="17" y="58" width="14" height="14" rx="2" fill="none" stroke="#ffffff" stroke-width="1.5"/>
<line x1="17" y1="65" x2="31" y2="65" stroke="#ffffff" stroke-width="1.5"/>

<circle cx="24" cy="118" r="6" fill="none" stroke="#858585" stroke-width="1.5"/>
<line x1="28" y1="122" x2="34" y2="128" stroke="#858585" stroke-width="1.5"/>

<circle cx="24" cy="164" r="2" fill="#858585"/>
<circle cx="18" cy="174" r="2" fill="#858585"/>
<circle cx="30" cy="174" r="2" fill="#858585"/>
<line x1="24" y1="164" x2="18" y2="174" stroke="#858585"/>
<line x1="24" y1="164" x2="30" y2="174" stroke="#858585"/>

<polygon points="18,208 31,214 18,220"
         fill="none"
         stroke="#858585"
         stroke-width="1.5"/>

<text x="65" y="64" class="small" fill="#858585">EXPLORER</text>

<text x="65" y="92" class="small" fill="#ffffff">IRVANGEN09</text>

<text x="80" y="124" class="small" fill="#cccccc">▾ bugs</text>
<text x="98" y="146" class="small" fill="#9cdcfe">new</text>
<text x="98" y="168" class="small" fill="#9cdcfe">old</text>
<text x="98" y="190" class="small" fill="#9cdcfe">premium</text>

<text x="80" y="222" class="small" fill="#cccccc">▾ hope</text>
<text x="98" y="244" class="small" fill="#9cdcfe">(empty)</text>

<text x="80" y="276" class="small" fill="#ce9178">final_final_v2.zip</text>

<text x="80" y="306" class="small" fill="#dcdcaa">README.md</text>

<rect x="298" y="36" width="180" height="34" fill="#1e1e1e"/>
<text x="320"
      y="58"
      class="small"
      fill="#ffffff">
it_works_on_my_machine.js
</text>

<text x="392"
      y="58"
      class="small"
      fill="#858585">
×
</text>

<rect x="298"
      y="69"
      width="180"
      height="1"
      fill="#007acc"/>

<!-- Line Numbers -->
<text x="320" y="105" class="code" fill="#858585">1</text>
<text x="320" y="135" class="code" fill="#858585">2</text>
<text x="320" y="165" class="code" fill="#858585">3</text>
<text x="320" y="195" class="code" fill="#858585">4</text>
<text x="320" y="225" class="code" fill="#858585">5</text>
<text x="320" y="255" class="code" fill="#858585">6</text>
<text x="320" y="285" class="code" fill="#858585">7</text>

<text x="350" y="105" class="code" fill="#6A9955">// DO NOT TOUCH.</text>

<text x="350" y="135" class="code" fill="#dcdcaa">if</text>
<text x="370" y="135" class="code" fill="#ffffff">(</text>
<text x="380" y="135" class="code" fill="#9cdcfe">works</text>
<text x="425" y="135" class="code" fill="#ffffff">)</text>

<text x="350" y="165" class="code" fill="#ffffff">{</text>

<text x="380" y="195" class="code" fill="#9cdcfe">dontTouch</text>

<text x="465" y="195" class="code" fill="#ffffff">();</text>

<text x="350" y="225" class="code" fill="#ffffff">}</text>

<text x="350" y="255" class="code" fill="#6A9955">// Seriously.</text>

<text x="320"
      y="585"
      class="small"
      fill="#858585">
TERMINAL
</text>

<line x1="298"
      y1="560"
      x2="1200"
      y2="560"
      stroke="#2a2d2e"
      stroke-width="1"/>

<text id="terminalText"
      x="320"
      y="612"
      class="code"
      fill="#d4d4d4">

PS C:\Users\irvangen09&gt; npm run build

<animate
    attributeName="opacity"
    values="1;0;1"
    dur="7s"
    repeatCount="indefinite"/>

</text>

<rect x="320" y="628" width="420" height="8" rx="4" fill="#333333"/>

<rect id="bar"
      x="320"
      y="628"
      width="0"
      height="8"
      rx="4"
      fill="#22c55e">

    <animate
        attributeName="width"
        values="0;420;0"
        dur="7s"
        repeatCount="indefinite"/>

</rect>

<text x="320" y="652" class="code" fill="#8fd18f">
✔ Build succeeded.

<animate
    attributeName="opacity"
    values="0;0;1;1;0"
    dur="7s"
    repeatCount="indefinite"/>
</text>

<text x="320" y="675" class="code" fill="#d16969">
💀 Production exploded.

<animate
    attributeName="opacity"
    values="0;0;0;1;1"
    dur="7s"
    repeatCount="indefinite"/>
</text>

<rect id="cursor"
      x="540"
      y="664"
      width="8"
      height="14"
      fill="#ffffff">

    <animate
        attributeName="opacity"
        values="1;0;1"
        dur="1s"
        repeatCount="indefinite"/>

</rect>

<g id="toast">

    <animateTransform
        attributeName="transform"
        type="translate"
        values="0,-20;0,0;0,0;0,-20"
        dur="7s"
        repeatCount="indefinite"/>

    <rect x="900"
          y="56"
          width="260"
          height="68"
          rx="8"
          fill="#252526"
          stroke="#3c3c3c"/>

    <text x="918"
          y="84"
          class="small"
          fill="#ffffff">
🏆 Achievement Unlocked
    </text>

    <text x="918"
          y="106"
          class="small"
          fill="#d7ba7d">
Created Another Bug
    </text>

</g>

<text x="12"
      y="694"
      class="small"
      fill="#ffffff">
☕ Coffee: Connected
</text>

<text x="165"
      y="694"
      class="small"
      fill="#ffffff">
🐛 Bugs: ∞
</text>

<text x="270"
      y="694"
      class="small"
      fill="#ffffff">
😭 Sanity: 3%
</text>

<text x="1120"
      y="694"
      class="small"
      fill="#ffffff">
v1.0.0
</text>
</svg>
